<mxfile host="app.diagrams.net" modified="2023-07-04T07:43:05.666Z" agent="Mozilla/5.0 (Windows NT 10.0; Win64; x64) AppleWebKit/537.36 (KHTML, like Gecko) Chrome/114.0.0.0 Safari/537.36" etag="x8JkHsvAUOcV1-HNEY18" version="21.5.2" type="github">
  <diagram name="第 1 页" id="capwCQ7glLwgoxMtNtH8">
    <mxGraphModel dx="1622" dy="609" grid="1" gridSize="10" guides="1" tooltips="1" connect="1" arrows="1" fold="1" page="0" pageScale="1" pageWidth="827" pageHeight="1169" background="none" math="0" shadow="0">
      <root>
        <mxCell id="0" />
        <mxCell id="1" parent="0" />
        <mxCell id="toc9IKO2sdrpkqZf50Xq-13" style="edgeStyle=orthogonalEdgeStyle;rounded=0;orthogonalLoop=1;jettySize=auto;html=1;exitX=0.5;exitY=1;exitDx=0;exitDy=0;entryX=0.5;entryY=0;entryDx=0;entryDy=0;" edge="1" parent="1" source="byndpxRj1AZmh7jCVyEH-1" target="toc9IKO2sdrpkqZf50Xq-1">
          <mxGeometry relative="1" as="geometry" />
        </mxCell>
        <mxCell id="byndpxRj1AZmh7jCVyEH-1" value="HTTP日志" style="rounded=1;whiteSpace=wrap;html=1;" parent="1" vertex="1">
          <mxGeometry x="180" y="260" width="120" height="60" as="geometry" />
        </mxCell>
        <mxCell id="toc9IKO2sdrpkqZf50Xq-16" style="edgeStyle=orthogonalEdgeStyle;rounded=0;orthogonalLoop=1;jettySize=auto;html=1;exitX=0.5;exitY=1;exitDx=0;exitDy=0;" edge="1" parent="1" source="byndpxRj1AZmh7jCVyEH-2" target="toc9IKO2sdrpkqZf50Xq-1">
          <mxGeometry relative="1" as="geometry" />
        </mxCell>
        <mxCell id="byndpxRj1AZmh7jCVyEH-2" value="DNS日志" style="rounded=1;whiteSpace=wrap;html=1;" parent="1" vertex="1">
          <mxGeometry x="340" y="260" width="120" height="60" as="geometry" />
        </mxCell>
        <mxCell id="toc9IKO2sdrpkqZf50Xq-3" style="edgeStyle=orthogonalEdgeStyle;rounded=0;orthogonalLoop=1;jettySize=auto;html=1;exitX=0.5;exitY=1;exitDx=0;exitDy=0;entryX=0.5;entryY=0;entryDx=0;entryDy=0;" edge="1" parent="1" source="byndpxRj1AZmh7jCVyEH-3" target="toc9IKO2sdrpkqZf50Xq-1">
          <mxGeometry relative="1" as="geometry" />
        </mxCell>
        <mxCell id="byndpxRj1AZmh7jCVyEH-3" value="会话日志" style="rounded=1;whiteSpace=wrap;html=1;" parent="1" vertex="1">
          <mxGeometry x="10" y="260" width="120" height="60" as="geometry" />
        </mxCell>
        <mxCell id="byndpxRj1AZmh7jCVyEH-6" style="edgeStyle=orthogonalEdgeStyle;rounded=0;orthogonalLoop=1;jettySize=auto;html=1;exitX=0.5;exitY=1;exitDx=0;exitDy=0;entryX=0.5;entryY=0;entryDx=0;entryDy=0;" parent="1" source="byndpxRj1AZmh7jCVyEH-4" target="byndpxRj1AZmh7jCVyEH-3" edge="1">
          <mxGeometry relative="1" as="geometry" />
        </mxCell>
        <mxCell id="byndpxRj1AZmh7jCVyEH-7" style="edgeStyle=orthogonalEdgeStyle;rounded=0;orthogonalLoop=1;jettySize=auto;html=1;exitX=0.5;exitY=1;exitDx=0;exitDy=0;" parent="1" source="byndpxRj1AZmh7jCVyEH-4" target="byndpxRj1AZmh7jCVyEH-1" edge="1">
          <mxGeometry relative="1" as="geometry" />
        </mxCell>
        <mxCell id="byndpxRj1AZmh7jCVyEH-8" style="edgeStyle=orthogonalEdgeStyle;rounded=0;orthogonalLoop=1;jettySize=auto;html=1;exitX=0.5;exitY=1;exitDx=0;exitDy=0;entryX=0.5;entryY=0;entryDx=0;entryDy=0;" parent="1" source="byndpxRj1AZmh7jCVyEH-4" target="byndpxRj1AZmh7jCVyEH-2" edge="1">
          <mxGeometry relative="1" as="geometry" />
        </mxCell>
        <mxCell id="byndpxRj1AZmh7jCVyEH-13" style="edgeStyle=orthogonalEdgeStyle;rounded=0;orthogonalLoop=1;jettySize=auto;html=1;exitX=0.5;exitY=1;exitDx=0;exitDy=0;entryX=0.392;entryY=0.019;entryDx=0;entryDy=0;entryPerimeter=0;" parent="1" source="byndpxRj1AZmh7jCVyEH-4" target="byndpxRj1AZmh7jCVyEH-11" edge="1">
          <mxGeometry relative="1" as="geometry" />
        </mxCell>
        <mxCell id="byndpxRj1AZmh7jCVyEH-14" style="edgeStyle=orthogonalEdgeStyle;rounded=0;orthogonalLoop=1;jettySize=auto;html=1;exitX=0.5;exitY=1;exitDx=0;exitDy=0;entryX=0.5;entryY=0;entryDx=0;entryDy=0;" parent="1" source="byndpxRj1AZmh7jCVyEH-4" target="byndpxRj1AZmh7jCVyEH-12" edge="1">
          <mxGeometry relative="1" as="geometry" />
        </mxCell>
        <mxCell id="byndpxRj1AZmh7jCVyEH-4" value="dbdk解析" style="rounded=1;whiteSpace=wrap;html=1;" parent="1" vertex="1">
          <mxGeometry x="340" y="70" width="120" height="60" as="geometry" />
        </mxCell>
        <mxCell id="toc9IKO2sdrpkqZf50Xq-15" style="edgeStyle=orthogonalEdgeStyle;rounded=0;orthogonalLoop=1;jettySize=auto;html=1;exitX=0.5;exitY=1;exitDx=0;exitDy=0;entryX=0.5;entryY=0;entryDx=0;entryDy=0;" edge="1" parent="1" source="byndpxRj1AZmh7jCVyEH-11" target="toc9IKO2sdrpkqZf50Xq-1">
          <mxGeometry relative="1" as="geometry" />
        </mxCell>
        <mxCell id="byndpxRj1AZmh7jCVyEH-11" value="安全日志" style="rounded=1;whiteSpace=wrap;html=1;" parent="1" vertex="1">
          <mxGeometry x="500" y="260" width="120" height="60" as="geometry" />
        </mxCell>
        <mxCell id="toc9IKO2sdrpkqZf50Xq-17" style="edgeStyle=orthogonalEdgeStyle;rounded=0;orthogonalLoop=1;jettySize=auto;html=1;exitX=0.5;exitY=1;exitDx=0;exitDy=0;" edge="1" parent="1" source="byndpxRj1AZmh7jCVyEH-12" target="toc9IKO2sdrpkqZf50Xq-1">
          <mxGeometry relative="1" as="geometry" />
        </mxCell>
        <mxCell id="byndpxRj1AZmh7jCVyEH-12" value="......." style="rounded=1;whiteSpace=wrap;html=1;" parent="1" vertex="1">
          <mxGeometry x="650" y="260" width="120" height="60" as="geometry" />
        </mxCell>
        <mxCell id="toc9IKO2sdrpkqZf50Xq-6" style="edgeStyle=orthogonalEdgeStyle;rounded=0;orthogonalLoop=1;jettySize=auto;html=1;exitX=1;exitY=0.5;exitDx=0;exitDy=0;entryX=0;entryY=0.5;entryDx=0;entryDy=0;" edge="1" parent="1" source="byndpxRj1AZmh7jCVyEH-15" target="toc9IKO2sdrpkqZf50Xq-1">
          <mxGeometry relative="1" as="geometry" />
        </mxCell>
        <mxCell id="toc9IKO2sdrpkqZf50Xq-24" style="edgeStyle=orthogonalEdgeStyle;rounded=0;orthogonalLoop=1;jettySize=auto;html=1;exitX=0.5;exitY=1;exitDx=0;exitDy=0;entryX=0;entryY=0.5;entryDx=0;entryDy=0;" edge="1" parent="1" source="byndpxRj1AZmh7jCVyEH-15" target="toc9IKO2sdrpkqZf50Xq-22">
          <mxGeometry relative="1" as="geometry" />
        </mxCell>
        <mxCell id="byndpxRj1AZmh7jCVyEH-15" value="配置" style="rounded=1;whiteSpace=wrap;html=1;" parent="1" vertex="1">
          <mxGeometry x="-100" y="500" width="120" height="60" as="geometry" />
        </mxCell>
        <mxCell id="toc9IKO2sdrpkqZf50Xq-21" style="edgeStyle=orthogonalEdgeStyle;rounded=0;orthogonalLoop=1;jettySize=auto;html=1;exitX=0.5;exitY=1;exitDx=0;exitDy=0;entryX=0.5;entryY=0;entryDx=0;entryDy=0;" edge="1" parent="1" source="toc9IKO2sdrpkqZf50Xq-1" target="toc9IKO2sdrpkqZf50Xq-18">
          <mxGeometry relative="1" as="geometry" />
        </mxCell>
        <mxCell id="toc9IKO2sdrpkqZf50Xq-1" value="发送前预处理器" style="rounded=1;whiteSpace=wrap;html=1;" vertex="1" parent="1">
          <mxGeometry x="330" y="500" width="120" height="60" as="geometry" />
        </mxCell>
        <mxCell id="toc9IKO2sdrpkqZf50Xq-10" value="统一的接口，&lt;br&gt;传入日志类型和&lt;br&gt;日志结构体" style="ellipse;shape=cloud;whiteSpace=wrap;html=1;" vertex="1" parent="1">
          <mxGeometry x="440" y="400" width="190" height="140" as="geometry" />
        </mxCell>
        <mxCell id="toc9IKO2sdrpkqZf50Xq-11" value="&lt;ol&gt;&lt;li&gt;开关控制&lt;/li&gt;&lt;li&gt;ip过滤&lt;/li&gt;&lt;li&gt;字段过滤&lt;/li&gt;&lt;li&gt;组织为字符串压入管道&lt;/li&gt;&lt;/ol&gt;" style="ellipse;shape=cloud;whiteSpace=wrap;html=1;align=center;" vertex="1" parent="1">
          <mxGeometry x="90" y="430" width="190" height="140" as="geometry" />
        </mxCell>
        <mxCell id="toc9IKO2sdrpkqZf50Xq-23" value="" style="edgeStyle=orthogonalEdgeStyle;rounded=0;orthogonalLoop=1;jettySize=auto;html=1;" edge="1" parent="1" source="toc9IKO2sdrpkqZf50Xq-18" target="toc9IKO2sdrpkqZf50Xq-22">
          <mxGeometry relative="1" as="geometry" />
        </mxCell>
        <mxCell id="toc9IKO2sdrpkqZf50Xq-18" value="管道队列" style="rounded=1;whiteSpace=wrap;html=1;" vertex="1" parent="1">
          <mxGeometry x="330" y="660" width="120" height="60" as="geometry" />
        </mxCell>
        <mxCell id="toc9IKO2sdrpkqZf50Xq-26" value="" style="edgeStyle=orthogonalEdgeStyle;rounded=0;orthogonalLoop=1;jettySize=auto;html=1;" edge="1" parent="1" source="toc9IKO2sdrpkqZf50Xq-22" target="toc9IKO2sdrpkqZf50Xq-25">
          <mxGeometry relative="1" as="geometry" />
        </mxCell>
        <mxCell id="toc9IKO2sdrpkqZf50Xq-28" value="" style="edgeStyle=orthogonalEdgeStyle;rounded=0;orthogonalLoop=1;jettySize=auto;html=1;" edge="1" parent="1" source="toc9IKO2sdrpkqZf50Xq-22" target="toc9IKO2sdrpkqZf50Xq-27">
          <mxGeometry relative="1" as="geometry" />
        </mxCell>
        <mxCell id="toc9IKO2sdrpkqZf50Xq-22" value="发送程序" style="whiteSpace=wrap;html=1;rounded=1;" vertex="1" parent="1">
          <mxGeometry x="330" y="800" width="120" height="60" as="geometry" />
        </mxCell>
        <mxCell id="toc9IKO2sdrpkqZf50Xq-25" value="KAFKA" style="whiteSpace=wrap;html=1;rounded=1;" vertex="1" parent="1">
          <mxGeometry x="210" y="930" width="120" height="60" as="geometry" />
        </mxCell>
        <mxCell id="toc9IKO2sdrpkqZf50Xq-27" value="SYSLOG" style="whiteSpace=wrap;html=1;rounded=1;" vertex="1" parent="1">
          <mxGeometry x="430" y="930" width="120" height="60" as="geometry" />
        </mxCell>
        <mxCell id="toc9IKO2sdrpkqZf50Xq-29" value="&lt;ol&gt;&lt;li&gt;发送字段的定制&lt;/li&gt;&lt;li&gt;格式的定制，csv/json&lt;/li&gt;&lt;li&gt;发送方式，kafka/syslog&lt;/li&gt;&lt;li&gt;发送目的地&lt;/li&gt;&lt;/ol&gt;" style="ellipse;shape=cloud;whiteSpace=wrap;html=1;align=center;" vertex="1" parent="1">
          <mxGeometry x="120" y="690" width="190" height="140" as="geometry" />
        </mxCell>
      </root>
    </mxGraphModel>
  </diagram>
</mxfile>
